<svg width="48" height="96" version="1.1" xmlns="http://www.w3.org/2000/svg" desc="Created with imagetracer.js version 1.2.6" ><path fill="rgb(0,0,0)" stroke="rgb(0,0,0)" stroke-width="1" opacity="0" d="M 0 0 L 48 0 L 48 46 L 0 46 L 0 0 Z " /><path fill="rgb(2,158,243)" stroke="rgb(2,158,243)" stroke-width="1" opacity="1" d="M 14 53 L 20.5 54 L 43 54 L 40.5 61 L 37.5 63 L 25.5 63 L 24.5 62 L 16.5 62 L 9 64 L 8.5 66 L 8 63.5 L 10 58 Q 12.7 59.1 12 56.5 L 14 53 Z " /><path fill="rgb(36,64,46)" stroke="rgb(36,64,46)" stroke-width="1" opacity="1" d="M 12.5 63 L 25 63.5 Q 21.3 68.3 13.5 69 L 9 67.5 L 10 64 L 12.5 63 Z " /><path fill="rgb(27,83,105)" stroke="rgb(27,83,105)" stroke-width="1" opacity="1" d="M 12.5 53 Q 14.8 52.3 14 54.5 L 12 58 Q 9.3 56.9 10 59.5 L 8 65.5 L 9 65.5 L 9.5 64 L 10 67 L 6 64.5 Q 5 56.5 9.5 54 L 12.5 53 Z " /><path fill="rgb(27,83,105)" stroke="rgb(27,83,105)" stroke-width="1" opacity="1" d="M 16.5 62 L 25 62.5 L 16.5 63 L 16.5 62 Z " /><path fill="rgb(97,254,255)" stroke="rgb(97,254,255)" stroke-width="1" opacity="1" d="M 0 46 L 7.5 46 L 8.5 47 L 18.5 47 L 48 46 L 47.5 48 L 12.5 48 L 8.5 48 L 0.5 48 L 0 46 Z " /><path fill="rgb(0,0,0)" stroke="rgb(0,0,0)" stroke-width="1" opacity="1" d="M 0 48 L 48 48 L 48 96 L 0 96 L 0 48 Z M 13 53 L 10 54 Q 4 56 6 65 L 13 69 L 21 67 L 22 67 L 17 78 Q 16 86 19 89 L 26 92 L 35 92 L 27 87 L 26 85 L 27 77 L 32 67 L 31 64 Q 38 64 41 61 L 43 54 L 13 53 Z " /><path fill="rgb(251,75,30)" stroke="rgb(251,75,30)" stroke-width="1" opacity="1" d="M 25.5 63 Q 30.8 61.8 32 64.5 Q 30.7 73.7 26 79.5 L 26 84.5 L 27 87 L 35 91.5 L 25.5 92 L 19 89 Q 16 85.8 17 77.5 L 22 66 Q 24.7 67.1 24 64.5 L 25.5 63 Z " /></svg>